<?xml version="1.0" standalone="no"?><!DOCTYPE svg PUBLIC "-//W3C//DTD SVG 1.1//EN" "http://www.w3.org/Graphics/SVG/1.1/DTD/svg11.dtd"><svg t="1626407995112" class="icon" viewBox="0 0 1024 1024" version="1.1" xmlns="http://www.w3.org/2000/svg" p-id="1822" xmlns:xlink="http://www.w3.org/1999/xlink" width="200" height="200"><defs><style type="text/css"></style></defs><path d="M998.2464 699.1872c-1.0752-4.3008-4.0448-7.936-8.0384-9.9328-11.8272-5.888-24.9344-23.3472-51.0464-58.1632-9.7792-13.0048-21.9136-29.184-36.5056-48.128-9.8816-12.8-22.9376-22.016-38.912-27.648 26.3168-69.3248 12.544-146.2784-14.6432-193.1776-8.704-15.0016-19.2512-29.3376-31.2832-42.5984a15.37536 15.37536 0 0 0-21.7088-1.024 15.32928 15.32928 0 0 0-1.024 21.7088 217.2416 217.2416 0 0 1 27.4432 37.3248c33.024 56.9344 42.9056 172.4928-40.8576 239.7184-20.224 16.2304-46.2336 25.7024-75.4688 27.6992-16.4864-39.7824-39.0144-69.4784-55.1424-87.4496-5.6832-6.2976-15.36-6.8096-21.7088-1.1776-6.2976 5.6832-6.8096 15.36-1.1776 21.7088 25.0368 27.904 67.2768 87.04 68.864 169.7792 1.1264 59.2384-29.8496 116.1728-82.7904 152.32-60.1088 41.0624-137.1648 47.0016-211.3536 16.2816-61.3376-25.344-105.984-73.6256-125.6448-135.8336-18.7904-59.4432-11.4688-124.1088 19.5584-172.9536 11.8272-18.5856 26.7264-34.5088 44.3904-47.36 116.0704-84.4288 212.5312-36.5056 216.5248-34.4064 0.8192 0.4096 1.6896 0.768 2.56 1.0752 3.2256 1.024 8.6528 3.1232 16.4352 7.68 7.3216 4.3008 16.7424 1.792 20.992-5.5296 4.3008-7.3216 1.792-16.7424-5.5296-20.992-7.7312-4.5056-14.9504-7.8848-21.5552-10.0864-4.352-2.1504-18.3808-8.448-39.5264-13.056 9.6768-26.8288 13.8752-53.0944 12.1344-76.8-1.8944-25.6-11.7248-52.8896-28.1088-77.9776 24.32-25.2416 55.3472-38.0928 72.2432-43.6224 57.6-18.8416 111.0016-14.2336 158.6176 13.6704a15.37536 15.37536 0 0 0 15.5648-26.5216 211.12832 211.12832 0 0 0-46.848-20.3264c18.176-119.808-59.5456-195.9424-62.976-199.168-5.0688-4.8128-12.6976-5.632-18.6368-1.9968-0.3072 0.2048-33.4848 20.3776-65.4336 32.4096-0.256 0.1024-0.4608 0.2048-0.7168 0.3072-32.1536 14.0288-56.2176 36.8128-71.7824 67.6864-18.4832-12.7488-40.4992-23.4496-65.792-31.6416a15.4112 15.4112 0 0 0-15.872 3.9936c-2.0992 2.2016-48.3328 51.3024-57.3952 113.3568-19.9168-0.8192-39.936 1.3824-59.8016 6.8096-1.2288 0.3584-2.4576 0.6656-3.6864 1.024-8.1408 2.4064-12.8 10.9056-10.3936 19.0464 2.4064 8.1408 10.9056 12.8 19.0464 10.3936 1.024-0.3072 2.048-0.6144 3.072-0.8704 21.1968-5.7344 42.6496-7.3216 63.6928-4.7104 81.2544 10.0352 140.3904 80.6912 144.7936 140.288 1.536 21.1456-2.816 45.2096-12.5952 70.0416-45.5168-3.4816-108.544 5.2224-176.9472 54.9888a204.12928 204.12928 0 0 0-42.8544 42.1888c-36.096-14.2848-61.44-41.2672-77.5168-82.432-36.8128-94.4128 4.4544-164.7616 55.3472-199.1168 7.0144-4.7616 8.8576-14.2848 4.1472-21.3504a15.39072 15.39072 0 0 0-21.3504-4.1472c-57.2928 38.656-104.448 115.0976-73.2672 216.9856-58.1632 26.1632-125.5936 90.0608-133.12 245.0944-0.256 5.6832 2.6112 11.0592 7.5264 13.9776 54.9376 32.5632 121.344 41.1648 176.0768 41.1648 10.1376 0 19.8656-0.3072 29.0816-0.8192 0.256 0.9216 0.512 1.8432 0.8192 2.7648 22.4768 71.0144 73.3184 126.0544 143.2064 154.9824 35.2256 14.5408 71.0656 21.76 105.9328 21.76 48.2304 0 94.5152-13.824 134.4512-41.0624 41.216-28.1088 70.8608-67.328 85.6064-111.0016 31.1808 12.6976 61.2864 19.0976 89.9584 19.0976 21.6064 0 42.4448-3.6352 62.4128-10.8544 7.9872-2.9184 12.0832-11.7248 9.216-19.6608s-11.7248-12.0832-19.6608-9.216c-40.0896 14.5408-85.248 11.3152-134.1952-9.472 2.0992-12.2368 3.1232-24.6784 2.8672-37.2224-0.512-26.3168-4.7616-50.432-11.0592-72.2432 32.1536-3.584 61.0304-15.1552 84.1728-33.7408 21.4528-17.2544 37.7344-36.9152 49.664-57.9072 11.776 3.584 20.9408 9.6256 27.7504 18.432 14.4896 18.7392 26.5728 34.8672 36.2496 47.7696 21.6064 28.8256 34.7648 46.2848 47.2576 57.2416-13.0048 18.0736-30.6176 40.448-53.8112 59.0336a15.37536 15.37536 0 0 0-2.3552 21.6064c3.0208 3.7888 7.4752 5.7344 11.9808 5.7344 3.3792 0 6.7584-1.1264 9.6256-3.3792 32.3584-26.0096 54.1696-57.2416 68.608-77.9776 2.4576-3.4816 3.328-8.0896 2.2016-12.3904zM579.072 113.152c23.1424-8.7552 46.1824-21.0432 59.2896-28.416 17.664 20.9408 58.2144 79.2576 46.4896 161.9456-34.2016-4.864-70.1952-1.3824-106.8032 10.5984-4.7616 1.536-9.8816 3.3792-15.2576 5.5808-2.7648-34.5088-17.5616-65.1264-42.9568-90.1632 12.0832-27.4432 31.9488-47.5136 59.2384-59.5456zM386.8672 241.9712c5.9904-39.424 30.9248-74.0352 42.8032-88.576 67.9424 24.7296 104.0896 68.608 102.7584 124.5184-12.1856 7.2704-24.5248 16.3328-35.9424 27.5968-27.136-30.2592-64.6656-54.3744-109.6192-63.5392z m-320.9728 482.816c8.7552-131.0208 64.1536-185.7024 112.6912-208.2816 18.5344 41.4208 47.0528 70.7584 85.0432 87.3472-24.3712 45.1072-32.6144 99.6352-23.4496 152.7808-51.4048 2.2528-119.04-2.3552-174.2848-31.8464z" fill="#ef5464" p-id="1823"></path><path d="M444.2112 797.2864c-23.7056 0-43.008 19.3024-43.008 43.008s19.3024 43.008 43.008 43.008 43.008-19.3024 43.008-43.008-19.3024-43.008-43.008-43.008z m0 55.296c-6.7584 0-12.288-5.5296-12.288-12.288s5.5296-12.288 12.288-12.288 12.288 5.5296 12.288 12.288-5.5296 12.288-12.288 12.288zM236.8512 477.9008c0 26.0096 21.1456 47.1552 47.1552 47.1552s47.1552-21.1456 47.1552-47.1552-21.1456-47.1552-47.1552-47.1552-47.1552 21.1456-47.1552 47.1552z m47.1552-16.4352c9.0624 0 16.4352 7.3728 16.4352 16.4352s-7.3728 16.4352-16.4352 16.4352-16.4352-7.3728-16.4352-16.4352 7.3728-16.4352 16.4352-16.4352zM740.352 506.4192c-3.2256 12.6976-2.4576 25.8048 2.2016 36.864 5.2224 12.3392 14.9504 21.1456 26.7264 24.1664 3.072 0.768 6.1952 1.1776 9.2672 1.1776 20.224 0 39.1168-16.384 45.3632-40.9088 7.2192-28.2624-5.5296-55.0912-28.9792-61.0304-23.3984-6.0416-47.4112 11.4688-54.5792 39.7312z m29.7472 7.5776c2.7648-10.8032 10.1888-17.7664 15.7696-17.7664 0.512 0 1.024 0.0512 1.4848 0.2048 5.6832 1.4336 9.7792 11.8784 6.7584 23.7056-3.0208 11.8272-11.5712 19.0464-17.3056 17.5616-3.2768-0.8192-5.1712-4.3008-6.0416-6.3488-1.9456-4.864-2.2528-11.2128-0.6656-17.3568z" fill="#ef5464" p-id="1824"></path></svg>