<?xml version="1.0" standalone="no"?><!DOCTYPE svg PUBLIC "-//W3C//DTD SVG 1.1//EN" "http://www.w3.org/Graphics/SVG/1.1/DTD/svg11.dtd"><svg t="1626408006966" class="icon" viewBox="0 0 1024 1024" version="1.1" xmlns="http://www.w3.org/2000/svg" p-id="2006" xmlns:xlink="http://www.w3.org/1999/xlink" width="200" height="200"><defs><style type="text/css"></style></defs><path d="M932.1984 601.4976c-23.9104-95.8464-82.688-121.3952-115.6608-128.0512-48.384-9.7792-103.2192 7.8336-135.4752 42.2912-50.8928-38.3488-91.0848-94.5152-120.1152-145.3568 18.3808 6.6048 37.4272 9.984 56.7296 9.984 15.5136 0 31.1808-2.1504 46.848-6.4512 27.0336-7.424 48.896-19.2512 65.024-35.1744a15.36 15.36 0 0 0 0.1536-21.7088 15.36 15.36 0 0 0-21.7088-0.1536c-12.3392 12.1856-29.7472 21.4016-51.6096 27.4432-40.3968 11.1104-79.2064 5.1712-115.3024-17.6128-1.28-0.8192-2.6624-1.3312-4.096-1.7408-20.7872-42.752-31.5392-74.2912-31.7952-75.1104-0.512-1.5872-1.28-3.072-2.304-4.352L481.28 216.7296c11.7248-22.3232 33.9968-45.824 76.4416-52.992 41.1648-6.9632 68.608 2.6112 92.8256 11.0592 21.1456 7.3728 42.8544 14.8992 65.536 4.6592 7.8848 18.8928 17.8176 49.5104 16.0768 80.2816a15.42144 15.42144 0 0 0 14.4384 16.2304h0.9216c8.0896 0 14.848-6.2976 15.3088-14.4896 2.7648-48.4352-17.6128-94.1056-26.5216-111.4624a15.4112 15.4112 0 0 0-10.7008-8.0896c-4.6592-0.8704-9.4208 0.3584-13.0048 3.4304-14.6944 12.6976-25.9072 9.5232-51.968 0.4096-24.9856-8.704-59.1872-20.5824-108.0832-12.3392-35.3792 5.9904-59.6992 21.3504-76.3904 38.5024-14.7456-24.8832-37.6832-41.2672-67.2768-47.9232-13.824-3.072-26.1632-5.7856-37.2224-8.192C310.0672 102.4 293.4784 98.3552 282.112 84.736a15.3856 15.3856 0 0 0-20.1216-3.072c-35.9424 23.1936-73.5232 84.1216-71.5776 142.1824 1.024 29.5936 12.7488 70.656 62.8736 98.4064 34.9184 19.3024 68.7104 25.4976 97.6896 25.4976 23.3472 0 43.52-4.0448 58.6752-8.448-12.4416 126.5664-43.1616 176.384-64.4096 191.5904-25.2416-15.5648-65.7408-28.5184-123.392-12.5952-61.6448 17.0496-109.2096 87.9616-113.0496 168.6528-4.9664 104.3968 62.72 193.7408 181.1456 238.9504 1.0752 0.4096 2.1504 0.6656 3.2768 0.8704 7.4752 1.0752 18.5856 1.8944 32.1024 1.8944 51.2 0 137.1136-11.8784 192.8192-66.4576 9.9328-9.7792 18.432-20.4288 25.5488-31.8976 49.152 51.6608 128.2048 63.1808 184.576 63.1808 31.9488 0 56.6272-3.6864 64.3584-5.8368 18.0736-5.0176 79.9744-26.0608 118.528-85.6576 4.608-7.1168 2.56-16.64-4.5568-21.248-7.1168-4.608-16.64-2.56-21.248 4.5568-32.6656 50.5344-85.504 68.4544-100.9152 72.7552-18.7392 5.2224-164.096 21.504-226.1504-57.856 10.8544-29.7984 13.9776-64 9.2672-102.4512-3.6352-29.5936-10.3936-54.6304-20.1216-75.0592 14.8992-26.0608 39.4752-40.2944 73.1648-42.24 15.6672 14.6944 26.368 23.5008 27.9552 24.832a15.3088 15.3088 0 0 0 13.7728 2.8672c1.6896-0.4608 42.0864-12.0832 60.6208-49.4592 3.6864-7.4752 0.768-16.5376-6.6048-20.4288-3.1744-1.6384-6.2464-3.4304-9.3696-5.2224 22.9376-21.6064 62.976-37.7344 103.3216-29.5424 31.5392 6.4 73.1136 29.8496 91.9552 105.3696 10.9568 44.032 13.1072 83.712 6.2976 118.016-1.6384 8.3456 3.7888 16.384 12.0832 18.0224 1.024 0.2048 1.9968 0.3072 2.9696 0.3072 7.168 0 13.6192-5.0688 15.0528-12.3904 7.8336-38.656 5.632-82.8928-6.4512-131.328zM268.3392 295.4752c-30.1568-16.6912-45.9776-41.1136-47.0528-72.5504-1.3312-40.0896 22.6816-85.5552 48.0256-108.032 17.7664 13.9776 43.3152 19.5584 96 31.0272 11.008 2.4064 23.2448 5.0688 37.0176 8.1408 25.9584 5.7856 43.3664 20.8384 53.3504 45.6704a148.992 148.992 0 0 0-9.0112 19.3536c-0.1024 0.256-0.1536 0.5632-0.2048 0.8192l-28.6208 36.3008c-2.048 2.56-3.1744 5.7344-3.2768 9.0112-0.4608 14.3872-1.1776 28.0576-2.048 41.0112-25.344 9.3184-82.6368 23.2448-144.1792-10.752z m228.4544 544.8704c-56.2176 55.0912-155.9552 61.7472-197.376 56.32-150.3232-58.1632-161.8432-164.864-159.7952-208.1792 3.1744-66.7136 42.0864-127.1296 90.5728-140.4928 32.1024-8.8576 60.4672-8.2432 84.6336 1.7408-0.2048 2.4064 0.1536 4.9152 0.9728 7.2704 1.2288 3.5328 12.8 34.7136 39.2192 46.4896 13.2096 5.888 27.904 5.8368 42.496-0.256 4.9664-2.048 9.8304-5.2736 14.592-9.472 0.9216-0.1024 1.8432-0.256 2.7648-0.512 20.736-6.0928 50.5856-9.9328 75.0592 6.144 24.9856 16.4352 40.8576 50.7904 47.2064 102.1952 7.2704 58.7264-6.2976 105.3696-40.3456 138.752z m32.8192-246.016c-6.7584-8.1408-14.3872-15.0528-22.784-20.5824-22.0672-14.4896-46.1824-17.664-67.7376-16.0256 21.2992-38.9632 37.888-96.4096 45.9264-152.7296 29.3888 59.8528 73.3696 112.3328 108.3904 148.5824-26.4704 6.3488-48.0256 20.1216-63.7952 40.7552z m131.7888-18.432c-28.8256-25.1392-142.8992-130.3552-171.4688-245.0944a15.37536 15.37536 0 0 0-16.7936-11.52c-7.68 0.9216-13.4656 7.4752-13.4656 15.2576 0 106.0352-42.2912 227.2768-73.8816 240.384-6.8608 2.8672-12.5952 3.0208-18.1248 0.6144-5.9904-2.6624-11.0592-8.0896-14.8992-13.6704 5.2736-2.56 11.0592-6.2464 17.2032-11.6224 30.6688-26.88 68.4544-97.1776 75.1104-278.9888l19.8656-25.1904 12.032 15.9744c8.6528 24.9856 77.824 214.5792 210.4832 295.168-8.5504 9.6768-19.1488 15.5648-26.0608 18.688z" fill="#ef5464" p-id="2007"></path><path d="M486.656 715.776a15.4112 15.4112 0 0 0-14.5408 16.128c1.0752 20.736-1.1776 42.8544-24.832 64.0512a15.38048 15.38048 0 0 0 10.24 26.8288c3.6352 0 7.3216-1.28 10.24-3.9424 33.536-30.1056 36.352-63.1296 35.0208-88.5248a15.2576 15.2576 0 0 0-16.128-14.5408zM462.6944 681.8816a15.44704 15.44704 0 0 0 14.592 10.5984c1.5872 0 3.2256-0.256 4.8128-0.768a15.4368 15.4368 0 0 0 9.8304-19.4048c-2.2528-6.8608-6.0416-18.3296-18.6368-17.1008a15.4112 15.4112 0 0 0-13.824 13.4144c-0.4608 3.584 0.3584 7.0144 2.0992 9.8304 0.256 0.7168 0.6144 1.8432 1.1264 3.4304zM827.2896 571.1872a15.36 15.36 0 0 0-2.1504 21.6064c8.8576 10.8032 17.8176 27.6992 17.408 71.0144a15.33952 15.33952 0 0 0 15.2064 15.5136h0.1536c8.3968 0 15.2576-6.7584 15.36-15.2064 0.4096-42.24-6.8608-69.376-24.32-90.7264a15.3856 15.3856 0 0 0-21.6576-2.2016zM799.6928 539.4944c-8.2432-1.4336-16.0768 4.0448-17.6128 12.288-1.536 8.2432 3.8912 16.2304 12.1344 17.92 0 0 1.4848 0.3072 3.8912 1.2288a15.36 15.36 0 0 0 19.7632-9.0112c2.9696-7.936-1.024-16.7936-8.96-19.7632-4.9152-1.8432-8.2944-2.5088-9.216-2.6624z" fill="#ef5464" p-id="2008"></path></svg>