<?xml version="1.0" standalone="no"?><!DOCTYPE svg PUBLIC "-//W3C//DTD SVG 1.1//EN" "http://www.w3.org/Graphics/SVG/1.1/DTD/svg11.dtd"><svg t="1626407978514" class="icon" viewBox="0 0 1024 1024" version="1.1" xmlns="http://www.w3.org/2000/svg" p-id="1496" xmlns:xlink="http://www.w3.org/1999/xlink" width="200" height="200"><defs><style type="text/css"></style></defs><path d="M840.3456 734.6176a129.64864 129.64864 0 0 0-63.3344-39.3728c0.5632-0.512 1.2288-0.9216 1.792-1.4336 31.4368-27.7504 47.616-69.2736 43.3664-111.0528a15.39072 15.39072 0 0 0-16.8448-13.7216 15.35488 15.35488 0 0 0-13.7216 16.8448c3.2768 31.9488-9.1136 63.6416-33.1264 84.8896-19.9168 17.6128-45.5168 26.368-72.1408 24.7808-24.1664-1.4848-46.4384-11.5712-63.5904-28.3648-1.4848-1.8432-2.9696-3.6864-4.5568-5.4272-1.536-1.7408-3.1744-3.4816-4.7616-5.12-31.488-41.1136-26.368-100.352 13.056-135.168 19.968-17.6128 45.5168-26.4704 72.1408-24.7808a98.816 98.816 0 0 1 68.5056 33.4848 15.32416 15.32416 0 0 0 21.6576 1.3312c6.3488-5.632 6.9632-15.3088 1.3312-21.6576-17.4592-19.7632-39.9872-33.4848-65.024-39.8848 3.0208-2.2528 5.9904-4.608 8.8576-7.1168 26.6752-23.6032 42.5984-56.1664 44.8-91.6992s-9.5744-69.8368-33.1776-96.512c-34.304-38.8096-86.3232-52.8384-133.3248-40.704 5.9392-10.496 8.0896-20.3776 9.6256-27.8016 0.4096-1.8944 0.768-3.6864 1.1776-5.3248 0.9728-3.6864 4.7616-8.8064 8.448-13.824 8.9088-12.0832 21.0944-28.6208 14.08-50.8928-1.2288-3.8912-3.9424-7.168-7.6288-9.0624-3.6352-1.8944-7.8848-2.2016-11.776-0.9728-9.8304 3.1744-47.5136-5.2224-64.512-18.0224-14.5408-10.9056-48.0768-23.552-81.0496-13.5168-11.9296 3.6352-26.6752 11.264-39.2704 27.136-15.9744-32.9216-39.5776-46.4384-63.3856-55.6544-4.0448-1.536-8.4992-1.3312-12.3904 0.5632-3.84 1.9456-6.7584 5.376-7.936 9.5232-2.6112 9.1648-4.7104 17.0496-6.5536 23.9616-5.8368 21.9648-8.4992 32-16.0768 40.4992-5.632 6.3488-5.0688 16.0256 1.28 21.7088 6.3488 5.632 16.0256 5.0688 21.7088-1.28 12.4416-13.9776 16.384-28.672 22.8352-53.0432 0.512-1.9968 1.0752-4.096 1.6896-6.2464 19.4048 10.7008 32.768 26.9312 40.9088 61.3376 1.5872 6.656 7.3216 11.4176 14.1312 11.776a15.36 15.36 0 0 0 15.3088-10.24c7.68-21.9648 20.0704-35.6352 36.7616-40.704 22.4768-6.8096 46.2848 3.1232 53.7088 8.6528 16.1792 12.1344 47.104 23.04 71.2704 24.576-1.6896 3.2256-4.3008 6.912-7.7312 11.5712-5.376 7.3216-10.9568 14.8992-13.4144 24.32-0.5632 2.0992-1.024 4.352-1.536 6.8096-3.4304 16.5888-7.7312 37.2224-61.3376 52.3264a15.39072 15.39072 0 0 0-11.2128 14.592c-0.1024 6.8096 4.3008 12.8512 10.8544 14.848 30.8736 9.5232 46.08 36.7616 52.6336 53.3504-13.7728 2.304-41.8304 6.1952-98.7136 12.032-44.6464 4.608-77.824-1.6896-95.9488-18.1248-14.8992-13.568-14.9504-29.8496-14.9504-30.3104 0.256-7.2704-4.6592-13.7216-11.7248-15.4624-20.48-4.9664-33.9456-14.2336-40.1408-27.5456-8.2944-17.8688-2.7648-41.2672 5.1712-57.1904a15.34464 15.34464 0 0 0-27.4432-13.7216c-4.8128 9.6768-8.2432 19.6096-10.2912 29.44l-84.8384 46.08a15.2576 15.2576 0 0 0-7.424 9.2672c-1.1264 3.9424-0.6144 8.192 1.4336 11.8272 0.2048 0.3072 16.5376 29.184 27.136 48.6912-32 87.9616-22.9376 184.6272-13.3632 239.3088-2.5088 1.9456-5.0176 3.9424-7.3728 6.0416-21.1456 18.688-35.584 43.008-41.728 70.4512a15.36 15.36 0 0 0 11.5712 18.3808c8.2432 1.8944 16.4864-3.328 18.3808-11.5712 4.7616-21.0944 15.872-39.8336 32.1536-54.1696 20.5312-18.176 46.9504-27.1872 74.2912-25.5488 24.9344 1.536 47.872 11.9296 65.536 29.2864 1.4848 1.8944 3.0208 3.7376 4.6592 5.5296 1.6384 1.8432 3.2768 3.6352 5.0176 5.376 15.0528 19.6096 22.4768 43.6736 20.9408 68.5568a102.12352 102.12352 0 0 1-34.4576 70.6048c-42.3936 37.4784-107.4176 33.4848-144.8448-8.9088a102.53824 102.53824 0 0 1-21.2992-38.0416 15.3856 15.3856 0 0 0-19.1488-10.24 15.3856 15.3856 0 0 0-10.24 19.1488c5.5808 18.3296 14.8992 34.9696 27.648 49.4592 23.6032 26.6752 56.1664 42.5984 91.6992 44.8 2.816 0.1536 5.5808 0.256 8.3968 0.256 32.512 0 63.5392-11.7248 88.1152-33.4336 3.7376-3.2768 7.2192-6.8096 10.5472-10.4448 3.1744 25.088 13.6192 49.5616 31.5904 69.888 23.04 26.112 54.8864 41.6256 89.6512 43.776 2.7648 0.1536 5.4784 0.256 8.192 0.256 31.7952 0 62.1056-11.4688 86.1696-32.6656 2.3552-2.048 4.5568-4.1984 6.7072-6.4 3.5328 25.0368 14.2848 48.5376 31.3856 67.8912 23.04 26.112 54.8864 41.6256 89.6512 43.776 2.7648 0.1536 5.4784 0.256 8.192 0.256 31.7952 0 62.1056-11.4688 86.1696-32.6656 53.504-47.8208 58.624-130.3552 11.008-184.2176zM658.0224 721.92c-0.5632 0.4608-1.1264 0.9216-1.6384 1.3824-2.3552 2.0992-4.608 4.2496-6.8096 6.5024-0.512-3.7376-1.1776-7.5264-2.048-11.2128 3.4304 1.2288 6.912 2.3552 10.496 3.328z m-233.1136-62.3616c-0.6144-5.2224-1.4848-10.4448-2.7136-15.5136 4.7104 1.7408 9.5232 3.2256 14.3872 4.4032-0.768 0.6656-1.5872 1.28-2.3552 1.9968-3.2768 2.9184-6.4 5.9392-9.3184 9.1136zM400.896 442.2656c19.5072-17.2032 43.7248-25.7024 67.8912-25.7024 28.416 0 56.7296 11.7248 76.9536 34.6112 37.4784 42.3936 33.4848 107.4176-8.9088 144.8448-40.6016 35.8912-101.8368 33.6384-139.8784-3.84-1.4848-1.8432-2.9696-3.6864-4.5568-5.4784-1.5872-1.792-3.2256-3.5328-4.864-5.2224-32.5632-42.2912-27.2384-103.3216 13.3632-139.2128z m156.2624 176.7936c2.1504-1.8944 4.1472-3.84 6.144-5.8368 0.5632 4.1984 1.3312 8.3968 2.2528 12.544-3.9936-1.4336-7.9872-2.7136-12.0832-3.7888 1.2288-0.9216 2.5088-1.8432 3.6864-2.9184z m43.9808-115.9168c-0.6144-5.2224-1.536-10.3936-2.816-15.5136 5.0176 1.8944 10.1376 3.4304 15.36 4.7104-2.56 1.9456-5.12 3.9936-7.5264 6.144-1.7408 1.536-3.3792 3.072-5.0176 4.6592z m16.6912-156.416c0.2048-2.7648-0.3072-5.4272-1.4336-7.8336-2.3552-9.2672-10.8032-36.0448-31.8976-58.3168 42.2912-31.488 102.5536-25.856 138.0864 14.336 37.4784 42.3936 33.4848 107.3664-8.9088 144.8448-20.5312 18.176-46.848 27.2384-74.2912 25.5488a102.12352 102.12352 0 0 1-70.6048-34.4576 102.4512 102.4512 0 0 1-25.344-59.5968c18.2272-2.2016 32.6656-4.1472 43.2128-5.888 16.8448-2.816 30.1568-5.0176 31.1808-18.6368z m-130.7136 30.72c9.0624-0.9216 17.6128-1.8432 25.7024-2.7136 0.6144 6.7072 1.792 13.312 3.3792 19.8144-35.2256-13.312-75.1616-11.3664-109.312 6.5024-5.6832-7.3728-12.032-15.4624-18.176-22.8864 2.7648-1.3824 5.5296-2.7136 8.2944-3.9936 1.7408-0.8192 3.2256-1.8944 4.4544-3.2256 15.7184 5.376 34.0992 8.1408 55.296 8.1408 9.6256 0 19.7632-0.512 30.3616-1.6384z m-231.0656-43.1616c1.6384-4.1984 1.3312-8.8576-0.768-12.8-6.2976-11.8272-16.2304-29.6448-23.1424-41.8816l53.9648-29.2864c4.608 21.6576 14.3872 55.2448 33.9456 82.5344 3.2768 4.5568 8.7552 6.9632 14.2848 6.2976 6.656-0.768 13.1584-1.9968 19.7632-3.4304 3.2256 5.0688 7.2704 10.1888 12.4928 15.0528 1.024 0.9216 2.1504 1.7408 3.1744 2.6112-4.352 2.2528-8.6528 4.608-12.9536 7.0656a15.35488 15.35488 0 0 0-3.4304 23.9104c6.7584 7.0656 16.384 18.7392 28.16 33.9968-0.3072 0.3072-0.6656 0.5632-1.024 0.8192a133.7344 133.7344 0 0 0-15.9744 16.8448c-18.688-15.0016-41.728-36.1472-60.0064-61.3376a15.30368 15.30368 0 0 0-14.7968-6.144c-5.6832 0.8704-10.3936 4.864-12.2368 10.3424-14.4896 43.6224-24.9856 112.9472-18.944 167.168-6.4 1.6896-12.5952 3.7888-18.6368 6.4-8.3968-54.1184-13.9776-141.0048 16.128-218.1632z m44.5952 207.6672c-3.8912-0.256-7.7824-0.3072-11.6224-0.2048-4.1984-38.8096 1.0752-87.296 9.8816-125.2864 16.6912 18.5856 34.4576 34.1504 49.3056 45.824a134.4 134.4 0 0 0-9.0624 87.7568c-12.1856-4.4544-25.1392-7.2192-38.5024-8.0896z m285.9008 280.832c-19.9168 17.6128-45.5168 26.368-72.0896 24.7808A98.816 98.816 0 0 1 445.952 814.08c-36.4032-41.1648-32.512-104.2432 8.6528-140.6464 18.944-16.7424 42.4448-24.9344 65.9456-24.9344 25.4464 0 50.7392 9.7792 69.9392 28.7744a136.81152 136.81152 0 0 0 9.1136 10.2912c31.488 41.1136 26.3168 100.4032-13.056 135.2192z m222.1056 72.8064c-19.9168 17.6128-45.568 26.368-72.1408 24.7808a98.816 98.816 0 0 1-68.5056-33.4848c-17.6128-19.968-26.4192-45.568-24.7808-72.0896a98.816 98.816 0 0 1 33.4848-68.5056c18.944-16.7424 42.4448-24.9344 65.9456-24.9344 27.5968 0 55.04 11.3664 74.7008 33.5872 36.352 41.216 32.4608 104.2944-8.704 140.6464z" fill="#ef5464" p-id="1497"></path><path d="M670.3616 322.56a14.2336 14.2336 0 1 0 0-28.4672 14.2336 14.2336 0 0 0 0 28.4672zM497.7664 477.4912a14.2336 14.2336 0 1 0-14.2336-14.2336c0.0512 7.8336 6.4 14.2336 14.2336 14.2336zM703.1808 537.7536a14.2336 14.2336 0 1 0 28.4672 0 14.2336 14.2336 0 0 0-28.4672 0zM771.0208 754.0736a14.2336 14.2336 0 1 0 14.2336 14.2336 14.26944 14.26944 0 0 0-14.2336-14.2336zM544.6144 683.4176a14.2336 14.2336 0 1 0 0 28.4672 14.2336 14.2336 0 0 0 0-28.4672zM330.1376 620.2368a14.2336 14.2336 0 1 0-28.4672 0 14.2336 14.2336 0 0 0 28.4672 0z" fill="#ef5464" p-id="1498"></path></svg>