<?xml version="1.0" standalone="no"?><!DOCTYPE svg PUBLIC "-//W3C//DTD SVG 1.1//EN" "http://www.w3.org/Graphics/SVG/1.1/DTD/svg11.dtd"><svg t="1626407882794" class="icon" viewBox="0 0 1024 1024" version="1.1" xmlns="http://www.w3.org/2000/svg" p-id="1198" xmlns:xlink="http://www.w3.org/1999/xlink" width="200" height="200"><defs><style type="text/css"></style></defs><path d="M974.848 526.2848a15.36 15.36 0 0 0-16.2816-5.8368c-1.1776 0.3072-87.7056 22.3744-162.4576 15.36 3.0208-19.0976 4.6592-38.5536 4.6592-58.0096 0-44.9536-8.2432-88.8832-23.808-129.9456-0.1024-0.3584-0.256-0.7168-0.4096-1.0752-17.408-45.5168-43.8272-87.552-78.4896-123.7504a15.31392 15.31392 0 0 0-21.7088-0.4608 15.31392 15.31392 0 0 0-0.4608 21.7088 338.56512 338.56512 0 0 1 69.3248 106.5984c-26.9824 42.752-21.504 79.5648-17.0496 109.4144 2.6112 17.5104 4.1472 29.4912 1.1264 39.3728-1.9456-54.4768-32.1024-110.6944-57.3952-124.7744-14.4896-8.0384-29.9008-23.4496-33.9968-76.6464-2.2016-28.5696-18.2784-56.832-44.1344-77.6192-22.528-18.0736-48.64-27.0336-70.0928-24.0128-27.5456 3.9424-42.0352 1.2288-65.4336-41.1648-3.8912-7.0144-9.5744-12.544-16.4864-16.8448 61.0304 2.6624 119.8592 21.1456 171.1104 53.9648 7.1168 4.5568 16.64 2.5088 21.1968-4.6592 4.5568-7.168 2.5088-16.64-4.6592-21.1968C568.9344 128 498.688 107.52 426.3424 107.52c-54.3744 0-106.0352 11.6224-152.7296 32.3584-1.4848 0.4096-2.7648 1.024-3.9936 1.792-79.1552 36.1984-143.4624 98.9184-181.0944 176.5888-0.5632 0.9216-0.9728 1.8944-1.3312 2.8672a364.68736 364.68736 0 0 0-35.2768 156.672c0 52.224 11.0592 101.9392 30.8736 146.9952 0.3584 1.2288 0.9216 2.4064 1.6384 3.5328 41.8304 92.5184 120.832 165.0176 218.2144 198.8608 0.6656 0.256 1.3312 0.512 2.048 0.6656a376.54528 376.54528 0 0 0 121.6512 20.1728c65.6896 0 128.9728-16.6912 185.2416-48.4864 0.3584 12.4928 3.9424 22.272 6.656 29.5936 0.6656 1.8432 1.3312 3.5328 1.8432 5.1712 1.1264 3.6352 0.6656 9.984 0.2048 16.1792-1.1264 14.9504-2.6624 35.4304 15.104 50.5856 2.816 2.3552 6.3488 3.6864 9.984 3.6864 0.4096 0 0.8704 0 1.28-0.0512 4.096-0.3584 7.8848-2.304 10.496-5.4272 6.656-7.936 43.008-20.7872 64.2048-18.9952 18.0224 1.536 53.248-5.632 75.8784-31.5904 8.192-9.4208 16.5888-23.7056 18.8416-43.8272 30.976 19.4048 58.2144 18.3296 83.3024 13.4656 4.2496-0.8192 7.936-3.3792 10.1888-7.0656 2.2528-3.6864 2.8672-8.1408 1.6384-12.288-2.6624-9.1648-5.0688-16.9472-7.168-23.808-6.7072-21.7088-9.7792-31.5904-7.8848-42.8544a15.36 15.36 0 0 0-12.5952-17.7152 15.36 15.36 0 0 0-17.7152 12.5952c-3.1232 18.432 1.3824 32.9728 8.8064 57.0368 0.6144 1.9968 1.2288 4.0448 1.8944 6.1952-22.2208 1.3312-42.0352-5.4272-67.2256-30.2592-4.864-4.7616-12.288-5.7856-18.2272-2.4576a15.43168 15.43168 0 0 0-7.5264 16.7936c5.12 22.6816 1.9456 40.8576-9.5232 54.016-15.4112 17.7152-40.8576 21.9136-50.1248 21.1456-20.1216-1.7408-52.1216 5.5296-73.4208 17.0496-0.256-3.6352-0.0512-8.1408 0.4096-13.9264 0.6656-9.0624 1.3824-18.4832-1.536-27.7504-0.6656-2.048-1.4336-4.2496-2.304-6.5536-4.0448-10.9056-8.7552-23.6032 0.7168-43.8272 0.1536-0.256 0.256-0.4608 0.3584-0.7168 4.4032-9.1136 11.6224-19.712 23.0912-32.3584 4.5568-5.0688 5.2736-12.4928 1.7408-18.3296s-10.496-8.6016-17.0496-6.8608c-32.9728 8.8064-61.6448-8.448-75.264-18.9952 8.96-8.5504 29.9008-26.0608 78.9504-60.416 81.0496-56.7808 121.4464-7.2192 123.0336-5.1712a15.37024 15.37024 0 0 0 17.1008 5.2736c22.784-7.5776 40.4992-7.424 52.6848 0.4608 15.1552 9.8304 19.2512 30.0544 20.3264 41.216 0.8192 8.448 8.3968 14.4896 16.7936 13.824a15.39072 15.39072 0 0 0 13.824-16.7936c-2.304-23.7056-11.008-43.1616-24.7296-56.32 13.7216-1.7408 28.1088-4.3008 43.264-7.8848 3.3792-0.8192 6.3488-2.7136 8.4992-5.4272 26.2656-33.28 44.288-61.44 45.056-62.6176 3.2768-5.2736 3.072-12.1344-0.6144-17.2544z m-204.8512-48.4864c0 17.8176-1.4848 35.6864-4.3008 53.248-5.4784-1.28-10.752-2.7648-15.872-4.5056 15.872-22.3744 12.2368-46.9504 8.6528-70.7584-2.9696-19.8144-6.0416-40.1408 0.6144-62.5152 7.168 27.2896 10.9056 55.6544 10.9056 84.5312zM82.944 489.7792c5.9392-6.1952 32.512-29.696 69.9392 0.0512 59.9552 47.616 105.0112 38.9632 166.912 20.2752 58.1632-17.5616 131.8912-2.1504 158.8736 23.296 22.3744 21.0944 86.4768 31.2832 142.4896 31.2832 6.4 0 12.6976-0.1536 18.8416-0.4096 8.3968-0.3584 17.408-1.024 26.5216-2.0992-48.4864 49.92-141.4144 88.7808-165.7856 81.9712-46.3872-13.1072-100.608-11.6224-186.9824 5.0688-78.7968 15.2064-180.9408-29.2864-204.4416-40.2432a334.45888 334.45888 0 0 1-26.368-119.1936z m30.9248-153.088c35.84-20.736 109.312-52.8384 134.5024-32.9728 2.816 2.2016 5.5808 4.4032 8.3456 6.6048 41.2672 32.8704 80.1792 63.8976 170.6496 57.7536 85.9648-5.888 145.3056 52.6336 158.3616 94.0544 7.8848 25.088 33.0752 37.6832 57.3952 49.8688 10.7008 5.376 21.6576 10.9056 31.1296 17.3568-0.3072 0.3072-0.6656 0.6656-0.9216 0.9728-9.984 1.5872-21.4528 2.7648-34.6112 3.328-62.9248 2.7136-125.2352-9.6256-138.9056-22.528-38.0416-35.8912-124.5184-49.7664-188.8256-30.3616-60.5696 18.2784-92.0064 22.3744-138.9568-14.8992-34.5088-27.4432-66.0992-24.6784-88.2688-13.9776 3.1232-40.9088 13.568-79.6672 30.1056-115.2z m578.56 242.6368c1.9456 1.4336 4.096 2.9184 6.2976 4.4032-5.1712 1.4336-10.5984 3.328-16.128 5.5808 3.4816-3.2768 6.7584-6.6048 9.8304-9.984zM283.7504 168.96c52.8384-13.312 134.8096-21.9136 147.6096 1.3312 26.624 48.3328 51.9168 63.1808 96.6656 56.7808 12.7488-1.792 30.976 5.0688 46.4896 17.5616 18.9952 15.2064 31.232 36.1472 32.7168 56.0128 4.096 53.1456 19.4048 84.3264 49.664 101.1712 12.8512 7.1168 43.6736 57.6 41.6768 107.3152-13.056-10.1888-28.16-17.8176-41.7792-24.6272-19.5072-9.7792-37.888-18.944-41.8816-31.5904-19.0464-60.4672-96.9728-121.8048-189.7472-115.456-78.4896 5.376-111.36-20.7872-149.4528-51.0976-2.7648-2.2016-5.5808-4.4544-8.448-6.7072-31.232-24.6272-86.272-8.448-126.2592 9.0112A345.344 345.344 0 0 1 283.7504 168.96z m338.9952 587.4176c-57.8048 39.8848-125.6448 60.9792-196.4544 60.9792-25.6 0-50.4832-2.8672-74.496-8.1408 32.1024-14.1824 78.5408-32 110.592-32.7168 34.4064-0.768 89.8048-10.24 136.3456-33.9456 8.5504 3.1744 17.9712 5.5808 28.1088 6.6048-1.4336 2.4576-2.816 4.864-4.096 7.2192z m-77.4656-52.2752c1.0752 3.84 3.4816 7.0656 6.6048 9.1648 2.3552 2.304 6.8608 6.2976 13.056 10.9056-35.328 14.0288-75.1104 20.992-103.168 21.6576-52.48 1.1776-131.9424 39.1168-154.624 50.4832-73.8816-27.0848-135.8848-78.6432-175.8208-144.5888 36.608 14.08 92.8256 31.4368 147.456 31.4368 13.8752 0 27.5968-1.1264 40.9088-3.6864 100.6592-19.4048 142.5408-14.1824 172.8512-5.632 19.7632 5.5808 55.2448-3.1232 92.5184-20.1728-44.2368 34.56-42.1376 42.0864-39.7824 50.432z m364.1856-121.1904c-105.8816 23.7056-169.3696-6.8608-198.4512-27.9552 0-0.0512 0-0.0512 0.0512-0.1024 3.9936-0.5632 7.68-2.7136 10.1376-5.9904 0.3584-0.1536 0.768-0.3584 1.1264-0.512 61.5936 29.3376 153.9072 19.1488 205.6192 9.9328-5.4272 7.4752-11.6224 15.872-18.4832 24.6272z" fill="#ef5464" p-id="1199"></path></svg>