<?xml version="1.0" encoding="UTF-8"?>
<svg width="600px" height="400px" viewBox="0 0 600 400" version="1.1" xmlns="http://www.w3.org/2000/svg" xmlns:xlink="http://www.w3.org/1999/xlink">
    <title>Teamwork Stat</title>
    <g id="Teamwork-Stat" stroke="none" stroke-width="1" fill="none" fill-rule="evenodd">
        <rect fill="#FFFFFF" x="0" y="0" width="600" height="400"></rect>
        <g id="plant_4_" transform="translate(466.181049, 196.948787)" fill-rule="nonzero">
            <g id="Group" transform="translate(9.001692, 34.210243)">
                <path d="M65.0138206,65.8601186 C60.5183756,67.7029704 55.7393773,69.1037898 50.8703621,70.0346685 C50.4004738,70.1255957 49.9305854,70.2174232 49.4516954,70.2867439 C47.6585584,70.6162426 45.8609205,70.8710189 44.0578816,71.051973 L44.0362775,71.0609757 C43.5267817,71.1176927 42.9866802,71.1618059 42.4681827,71.1960162 C24.1614416,72.7642857 6.62704569,67.8001995 1.7040203,55.7888032 L1.69501861,55.7671968 L1.30614552,54.6328571 C-1.66351269,45.7778059 2.56908291,35.0618976 10.5733875,25.4380162 L10.5949915,25.4290135 C11.0351743,24.8933531 11.4969611,24.34869 11.9587479,23.804027 L11.9803519,23.7950243 C16.3668765,18.901159 21.6985787,14.3304906 27.5811844,10.5493585 L28.786511,9.77602695 L28.8081151,9.76702426 C32.3070728,7.59647439 35.9869645,5.68250135 39.7226667,4.15114286 C42.3502606,3.07352022 44.8977394,2.23266846 47.3461997,1.58447439 C47.7332724,1.47644205 48.1293469,1.39001617 48.5254213,1.30449057 C50.3914721,0.843552561 52.2152149,0.527557951 54.0092521,0.324997305 C54.4008257,0.290787062 54.7842978,0.23587062 55.1848731,0.223266846 C62.3061117,-0.41322372 68.5712893,0.823746631 73.8300778,3.56506739 C74.2063486,3.74061995 74.5700169,3.94678167 74.942687,4.17454987 C80.9999255,7.62798383 85.6105922,13.1205283 88.4497259,19.922965 L88.8818071,21.0392992 C91.7263418,28.4737251 92.0224975,36.1917358 89.3723993,43.3416765 C89.2364738,43.7521995 89.0915465,44.1420162 88.9160135,44.5183288 C87.1777868,48.7576981 84.3746599,52.748593 80.4733266,56.3514717 C80.2005753,56.6152507 79.9071201,56.8880323 79.5821591,57.1482102 C77.5315736,58.9532507 75.1524264,60.6385553 72.4897259,62.1870189 C72.1476616,62.4039838 71.7956954,62.598442 71.4446294,62.7929003 C69.4561557,63.8867278 67.3164535,64.9157358 65.0138206,65.8601186 Z" id="Path" fill="#FFCB01"></path>
                <path d="M71.7101794,29.6512776 L88.9151134,44.5183288 C89.0906464,44.1420162 89.2355736,43.7530997 89.3714992,43.3416765 L72.878599,29.0967116 C80.214978,25.581159 85.7789239,22.6921941 88.8809069,21.0392992 L88.4488257,19.922965 C85.476467,21.5218437 80.087154,24.3405876 72.9677157,27.7661132 L72.9677157,27.7661132 L74.9417868,4.17454987 C74.5691168,3.94678167 74.2054484,3.74061995 73.8291777,3.56506739 L71.7344839,28.3485876 L71.7344839,28.3485876 C67.0202978,30.5857574 61.6012792,33.0858059 55.6430592,35.6308679 L55.1848731,0.224167116 C54.7842978,0.236770889 54.4008257,0.291687332 54.0092521,0.325897574 L54.4791404,36.1341186 C52.976758,36.8003181 51.4347682,37.4332075 49.880176,38.0958059 L48.5254213,1.30629111 C48.1293469,1.39271698 47.7332724,1.47914286 47.3461997,1.5871752 L48.7072555,38.5774501 C41.9613875,41.3682857 34.6889205,44.1726253 27.0617868,46.7915094 L28.786511,9.77962803 L27.5811844,10.5529596 L25.8618613,47.207434 L25.8618613,47.207434 C20.2430051,49.1556173 14.4522166,50.9966685 8.5822132,52.6423612 C8.18253807,52.7810027 7.77386125,52.8980377 7.35618274,52.992566 C5.35600677,53.5588356 3.32522504,54.1125013 1.30704569,54.635558 L1.69591878,55.7698976 C7.86747885,54.178221 13.9805279,52.3830836 19.9576514,50.4394016 L42.4690829,71.198717 C42.9875804,71.1636065 43.5276819,71.1203935 44.0371777,71.0636765 L21.2313909,50.0189757 L21.2313909,50.0189757 L21.2313909,50.0189757 C22.9354112,49.4725121 24.5872217,48.9224474 26.2426328,48.3201671 L26.2642369,48.3111644 L26.2642369,48.3111644 L49.4525956,70.2894447 C49.9314856,70.220124 50.4013739,70.1291968 50.8712623,70.0373693 L27.5154721,47.898841 L27.5154721,47.898841 C35.112,45.2664528 42.3853672,42.4621132 49.130335,39.6721779 L49.1519391,39.6631752 L71.4437293,62.7956011 C71.7947953,62.6011429 72.1467614,62.4057844 72.4888257,62.1897197 L50.3239594,39.1824313 L50.3023553,39.191434 L50.3023553,39.191434 L50.3239594,39.1824313 C51.9001557,38.5108302 53.4421455,37.878841 54.9454281,37.2117412 L79.5812589,57.1509111 C79.90622,56.8907332 80.2005753,56.6179515 80.4724264,56.3541725 L56.152555,36.6913854 C61.8938342,34.2336496 67.1256176,31.8344313 71.7101794,29.6512776 L71.7101794,29.6512776 Z" id="Path" fill="#FFFFFF"></path>
            </g>
            <g id="Group">
                <path d="M66.7601489,49.8146146 L66.2506531,50.7770027 C64.9985178,53.0996981 63.6050558,55.4187925 62.1197766,57.688372 C61.9343418,57.9935633 61.7309036,58.2879515 61.5274653,58.5832399 C58.3066599,63.4176873 54.6213672,68.0531752 50.6957293,72.1593046 C50.4166768,72.4617951 50.1295228,72.7363774 49.8612724,73.0208625 C38.7648866,84.2769326 25.8033503,91.1342857 15.5333198,86.054965 C15.3937936,86.0045499 15.2461658,85.9262264 15.1165415,85.8578059 C14.9311066,85.7596765 14.7276684,85.6525445 14.5530355,85.5355094 C4.21999323,79.5451159 -0.580609137,62.2923504 0.522098139,44.9423558 C0.532900169,44.4742156 0.571607445,43.9970728 0.619316413,43.5487385 C1.21162775,36.162027 2.88864298,28.8293315 5.6881692,22.3743989 C5.81869374,21.9935849 5.97622335,21.6505822 6.16255838,21.2985768 C6.54873096,20.3893046 6.98081218,19.5286469 7.43089679,18.6769919 C7.82247039,17.9369704 8.23294755,17.2059515 8.66052792,16.5325499 C8.82705922,16.2183558 9.01249408,15.9131644 9.21593232,15.617876 C13.8824095,8.23206469 19.8559323,3.83604852 26.3398511,1.69970889 C26.6990186,1.55836658 27.0671878,1.44493261 27.4533604,1.34140162 C36.4964602,-1.28828571 46.3776176,0.316894879 55.0066396,4.29068464 C55.3307005,4.43832884 55.6556616,4.58687332 55.9797225,4.73451752 C56.5162234,5.01810243 57.0626261,5.28368194 57.5991269,5.56816712 C66.9446836,10.514248 72.4042098,17.0754124 73.1459492,25.9259623 C73.1936582,26.2833693 73.2134619,26.6488787 73.2143621,27.0044852 C73.3268832,29.4334124 73.0991404,32.0135849 72.5104298,34.7819137 C72.4465178,35.126717 72.3637022,35.4625175 72.2709848,35.8163235 C71.2564941,40.0637951 69.4354518,44.7145876 66.7601489,49.8146146 Z" id="Path" fill="#1B90FB"></path>
                <path d="M44.9202437,22.1457305 L73.2161624,27.0044852 C73.2152623,26.6479784 73.1954585,26.282469 73.1468494,25.9259623 L45.523357,21.1860431 C49.8549712,14.0730135 53.6230795,8.29598383 55.9806227,4.73451752 C55.6565618,4.58687332 55.3316007,4.43832884 55.0075398,4.29068464 C52.6301929,7.88906199 48.8719865,13.647186 44.5700778,20.7043989 L27.4551607,1.34050135 C27.0689882,1.44403235 26.700819,1.55746631 26.3416514,1.69880863 L44.0056717,21.6370782 C40.2474653,27.8453369 36.0913841,35.0276873 32.0856311,42.5971536 L9.21773266,15.6160755 C9.01429442,15.9113639 8.82885956,16.215655 8.66322843,16.5307493 L31.5671337,43.5775472 C30.7839865,45.0584906 30.0089408,46.5673423 29.2338951,48.0761941 L6.16435871,21.2967763 C5.97802369,21.6487817 5.82049408,21.9917844 5.68996954,22.3725984 L28.7234992,49.0853962 C26.1112081,54.3366685 23.6177394,59.6743666 21.4168257,64.9535472 L0.621116751,43.546938 C0.573407783,43.9952722 0.533800338,44.4724151 0.523898477,44.9405553 L20.9802437,66.0014609 C18.2014213,72.7750889 15.9410964,79.4208787 14.5539357,85.5337089 C14.7294687,85.6498437 14.9329069,85.757876 15.1174416,85.8560054 C15.247066,85.9244259 15.3955939,86.0027493 15.53422,86.0531644 C16.8745719,79.939434 19.1258951,73.2657358 21.9146193,66.4732022 L49.8621726,73.019062 C50.1313232,72.7345768 50.4184772,72.4599946 50.6966294,72.157504 L22.3115939,65.4982102 C24.5125076,60.2190296 26.9969746,54.8525229 29.6470728,49.5742426 L61.5274653,58.5814394 C61.7309036,58.2861509 61.9343418,57.9908625 62.1188765,57.6865714 L30.1268629,48.6208571 C30.9019086,47.1120054 31.6760541,45.6031536 32.4700034,44.1033046 L66.249753,50.7743019 L66.7592487,49.8119137 L32.989401,43.1220108 C35.6241963,38.1435202 38.3382064,33.3252776 40.9522978,28.8329326 L72.2709848,35.8127224 C72.3637022,35.4589164 72.4465178,35.1231159 72.5104298,34.7783127 L41.5086024,27.8714447 C42.6797225,25.8872507 43.8283384,23.9840809 44.9202437,22.1457305 Z" id="Path" fill="#FFFFFF"></path>
            </g>
            <g id="Group" transform="translate(0.000000, 75.622642)">
                <path d="M56.9978139,67.5103127 C51.2043249,69.8600162 45.0030592,70.9412399 38.9017124,70.8926253 C38.4039188,70.9088302 37.8872217,70.8791213 37.3795262,70.8728194 C34.3081489,70.7638868 31.2799797,70.3722695 28.3616311,69.7231752 L28.3391269,69.7321779 C27.7216108,69.5845337 27.126599,69.4269865 26.5090829,69.2793423 C15.380291,66.3300593 6.03743486,59.6005445 2.25492386,50.2719515 C2.069489,49.8155148 1.91736041,49.3734825 1.76433164,48.9305499 C1.63020643,48.533531 1.49518105,48.1365121 1.41596616,47.7439946 C-1.37275804,37.9850728 2.39354992,27.6922911 9.98467682,19.1676388 L10.007181,19.1586361 C10.4068562,18.704 10.7939289,18.2817736 11.2026058,17.8505445 L11.22511,17.8415418 C15.8681827,12.9836873 21.7165821,8.80463612 28.296819,5.71130997 C28.6982944,5.52225337 29.0988697,5.3322965 29.510247,5.16574663 C30.1304636,4.86145553 30.7461794,4.61118059 31.3843993,4.35190296 C34.9877766,2.88986523 38.5479459,1.84465229 42.0180981,1.23426954 C42.4105719,1.15504582 42.8030457,1.07492183 43.2054213,1.01820485 C47.6216514,0.315994609 51.8623486,0.29528841 55.796088,0.957886792 C56.2119662,1.002 56.6377462,1.06771968 57.0725279,1.15774663 C59.8450491,1.70691105 62.4906464,2.59907817 64.9229036,3.81714286 C65.3486836,4.01610243 65.7609611,4.2474717 66.1741387,4.47884097 C71.7785922,7.62438275 76.2128257,12.598372 78.8863283,19.1901456 C78.9691438,19.395407 79.0528596,19.6006685 79.1131709,19.8149326 C79.2707005,20.2029488 79.4273299,20.5900647 79.5524535,20.9645768 C81.4806159,26.6371752 81.8982944,32.7094933 80.8712014,38.6242642 C80.7910863,39.0816011 80.7109712,39.538938 80.6083519,40.0061779 C79.9557293,43.1130081 78.8647242,46.1847278 77.3893469,49.0943989 C77.203912,49.488717 77.0094755,49.859628 76.7916345,50.240442 C74.3449746,54.685973 70.936934,58.7245822 66.5927174,62.0276712 C66.2740575,62.2896496 65.9553976,62.551628 65.6178342,62.768593 C63.0532521,64.6285499 60.1682098,66.2247278 56.9978139,67.5103127 Z" id="Path" fill="#61DDA0"></path>
                <path d="M65.7798646,27.2133477 L65.7798646,27.2133477 L80.6083519,40.0043774 C80.7109712,39.5380377 80.7910863,39.0798005 80.8712014,38.6224636 L66.9932927,26.6677844 C71.5904569,24.6439784 75.8266531,22.7129003 79.5524535,20.9627763 C79.4273299,20.5882642 79.2698003,20.2011482 79.1122707,19.8131321 C75.3639662,21.5722588 71.1043655,23.5132399 66.4846971,25.5460485 L66.1732386,4.47614016 C65.7609611,4.24477089 65.3486836,4.01340162 64.9229036,3.81444205 L65.2946734,26.0817089 C63.3836142,26.9360647 61.3726362,27.8057251 59.3382538,28.6834879 L59.3382538,28.6834879 L57.0716277,1.15504582 C56.636846,1.06591914 56.2119662,0.999299191 55.7951878,0.955185984 L58.1293266,29.1732345 L58.1293266,29.1732345 L58.1293266,29.1732345 C53.5816717,31.1241186 48.8152758,33.0569973 43.975066,34.9412615 L43.2045212,1.01640431 C42.8021455,1.07312129 42.4096717,1.15234501 42.017198,1.232469 L42.7571371,35.4094016 L42.7571371,35.4094016 L42.7571371,35.4094016 C38.6469645,36.9965768 34.462978,38.5342372 30.3339019,39.9440593 L30.3339019,39.9440593 L29.5084467,5.16394609 C29.0979695,5.33049596 28.6964941,5.51955256 28.2950186,5.70950943 L29.1195736,40.3563827 C23.0506328,42.4198005 17.0447039,44.2446469 11.3799391,45.6661725 C10.9739628,45.7778059 10.5580846,45.8669326 10.1422064,45.955159 C7.12483926,46.7005822 4.20739086,47.3001617 1.41236548,47.7430943 L1.76073096,48.9296496 C4.57826058,48.4777143 7.5416176,47.8601294 10.5913909,47.12731 L10.6138951,47.1183073 C11.0432758,46.9976712 11.4582538,46.9085445 11.8966362,46.8104151 C14.060643,46.2513477 16.2606565,45.6517682 18.519181,45.0008733 L37.3768257,70.8728194 C37.883621,70.8791213 38.4003181,70.9088302 38.8990118,70.8926253 L19.7515127,44.6344636 L19.7515127,44.6344636 C27.3912487,42.3855903 35.362247,39.5776496 43.1721151,36.5689488 L43.1721151,36.5689488 L65.6151337,62.7658922 C65.9526971,62.5498275 66.271357,62.2878491 66.5900169,62.0249704 L44.3927445,36.1008086 C49.2554585,34.2075418 54.0452589,32.2656604 58.6154179,30.3048733 L58.6154179,30.3048733 L76.7907343,50.2377412 C77.0085753,49.8578275 77.2030118,49.4860162 77.3884467,49.0916981 L59.823445,29.8142264 L59.823445,29.8142264 C61.8578274,28.9364636 63.8463012,28.0767062 65.7798646,27.2133477 Z" id="Path" fill="#DBFEED"></path>
            </g>
        </g>
        <g id="chevron_arrow" transform="translate(107.913706, 54.706199)" fill-rule="nonzero">
            <polygon id="Path" fill="#F3F9FF" points="15.976203 57.565035 31.1656582 72.7561833 31.1656582 83.5414124 15.976203 68.3511644 0.787648054 83.5414124 0.787648054 72.7561833"></polygon>
            <polygon id="Path" fill="#E7F4FE" points="15.976203 38.5765499 31.1656582 53.7676981 31.1656582 64.5529272 15.976203 49.3626792 0.787648054 64.5529272 0.787648054 53.7676981"></polygon>
            <polygon id="Path" fill="#DCEEFD" points="15.976203 19.588965 31.1656582 34.7792129 31.1656582 45.5653423 15.976203 30.3741941 0.787648054 45.5653423 0.787648054 34.7792129"></polygon>
            <polygon id="Path" fill="#D0E7FE" points="15.976203 0.600479784 31.1656582 15.7907278 31.1656582 26.5768571 15.976203 11.3857089 0.787648054 26.5768571 0.787648054 15.7907278"></polygon>
        </g>
        <g id="Group" transform="translate(159.223350, 34.000000)" fill-rule="nonzero">
            <g>
                <path d="M333.209333,26.8946523 L333.209333,316.781445 C333.209333,319.267089 331.193854,321.282792 328.708487,321.282792 L5.15166836,321.282792 C2.66630118,321.282792 0.650822335,319.267089 0.650822335,316.781445 L0.650822335,26.8946523 L333.209333,26.8946523 Z" id="Path" fill="#F3F9FF"></path>
                <path d="M333.209333,8.41752022 L333.209333,26.8955526 L0.650822335,26.8955526 L0.650822335,8.41752022 C0.650822335,4.13403774 4.12277496,0.661697938 8.40578003,0.661697938 L325.453475,0.661697938 C329.737381,0.660797844 333.209333,4.13403774 333.209333,8.41752022 Z" id="Path" fill="#224380"></path>
                <ellipse id="Oval" fill="#FFCB01" cx="24.4801015" cy="14.2467655" rx="4.90592217" ry="4.906469"></ellipse>
                <ellipse id="Oval" fill="#44D690" cx="41.9460846" cy="14.2467655" rx="4.90592217" ry="4.906469"></ellipse>
                <rect id="Rectangle" fill="#DCEEFD" x="0.650822335" y="26.8946523" width="331.91669" height="7.39931536"></rect>
            </g>
            <g transform="translate(27.905245, 54.016173)">
                <g transform="translate(150.328257, 131.439353)" id="Path">
                    <path d="M125.546599,14.2908787 L125.546599,106.71255 C125.546599,111.69104 121.513841,115.715245 116.544907,115.715245 L9.07370558,115.715245 C4.10477157,115.715245 0.0720135364,111.69104 0.0720135364,106.71255 L0.0720135364,14.2908787 C0.0720135364,9.31238814 4.10477157,5.28818329 9.07370558,5.28818329 L116.544907,5.28818329 C121.513841,5.28818329 125.546599,9.31238814 125.546599,14.2908787 Z" fill="#DAE7FF"></path>
                    <path d="M125.546599,9.789531 L125.546599,102.211202 C125.546599,107.189693 121.513841,111.213898 116.544907,111.213898 L9.07370558,111.213898 C4.10477157,111.213898 0.0720135364,107.189693 0.0720135364,102.211202 L0.0720135364,9.789531 C0.0720135364,4.81104043 4.10477157,0.78683558 9.07370558,0.78683558 L116.544907,0.78683558 C121.513841,0.78683558 125.546599,4.81104043 125.546599,9.789531 Z" fill="#FFFFFF"></path>
                </g>
                <path d="M117.182227,244.003655 L108.180535,244.003655 L108.180535,241.302846 L117.182227,241.302846 L117.182227,244.003655 Z M99.1788426,244.003655 L90.1771506,244.003655 L90.1771506,241.302846 L99.1788426,241.302846 L99.1788426,244.003655 Z M81.1754585,244.003655 L72.1737665,244.003655 L72.1737665,241.302846 L81.1754585,241.302846 L81.1754585,244.003655 Z M63.1720745,244.003655 L54.1703824,244.003655 L54.1703824,241.302846 L63.1720745,241.302846 L63.1720745,244.003655 Z M45.1686904,244.003655 L36.1669983,244.003655 L36.1669983,241.302846 L45.1686904,241.302846 L45.1686904,244.003655 Z M27.1653063,244.003655 L18.1636142,244.003655 L18.1636142,241.302846 L27.1653063,241.302846 L27.1653063,244.003655 Z M8.88106937,243.748879 C5.4280203,242.968345 2.64559729,240.51331 1.43847039,237.180512 L3.97694755,236.261337 C4.85641286,238.686663 6.9628088,240.54752 9.47608122,241.11559 L8.88106937,243.748879 Z M126.334247,240.583531 L124.32957,238.773989 C125.597008,237.367768 126.29644,235.548323 126.29644,233.650555 L126.29644,231.255838 L128.996948,231.255838 L128.996948,233.650555 C128.996948,236.219024 128.05087,238.681261 126.334247,240.583531 Z M3.5223621,227.781698 L0.821854484,227.781698 L0.821854484,218.779003 L3.5223621,218.779003 L3.5223621,227.781698 Z M128.996948,222.253143 L126.29644,222.253143 L126.29644,213.250447 L128.996948,213.250447 L128.996948,222.253143 Z M3.5223621,209.776307 L0.821854484,209.776307 L0.821854484,200.773612 L3.5223621,200.773612 L3.5223621,209.776307 Z M128.996948,204.247752 L126.29644,204.247752 L126.29644,195.245057 L128.996948,195.245057 L128.996948,204.247752 Z M3.5223621,191.770916 L0.821854484,191.770916 L0.821854484,182.768221 L3.5223621,182.768221 L3.5223621,191.770916 Z M128.996948,186.242361 L126.29644,186.242361 L126.29644,177.239666 L128.996948,177.239666 L128.996948,186.242361 Z M3.5223621,173.765526 L0.821854484,173.765526 L0.821854484,164.76283 L3.5223621,164.76283 L3.5223621,173.765526 Z M128.996948,168.23697 L126.29644,168.23697 L126.29644,159.234275 L128.996948,159.234275 L128.996948,168.23697 Z M3.5223621,155.760135 L0.821854484,155.760135 L0.821854484,146.757439 L3.5223621,146.757439 L3.5223621,155.760135 Z M128.996948,150.23158 L126.29644,150.23158 L126.29644,141.228884 C126.29644,139.437348 125.665421,137.695326 124.519506,136.325116 L126.592596,134.592997 C128.143587,136.449353 128.996948,138.806259 128.996948,141.228884 L128.996948,150.23158 Z M4.08226734,138.348022 L1.58069712,137.331617 C2.91474788,134.048334 5.78808799,131.699531 9.26634179,131.049536 L9.76233503,133.704431 C7.23015905,134.177973 5.05354992,135.956906 4.08226734,138.348022 Z M117.525191,133.576593 L108.523499,133.576593 L108.523499,130.875784 L117.525191,130.875784 L117.525191,133.576593 Z M99.5218071,133.576593 L90.5201151,133.576593 L90.5201151,130.875784 L99.5218071,130.875784 L99.5218071,133.576593 Z M81.518423,133.576593 L72.516731,133.576593 L72.516731,130.875784 L81.518423,130.875784 L81.518423,133.576593 Z M63.5150389,133.576593 L54.5133469,133.576593 L54.5133469,130.875784 L63.5150389,130.875784 L63.5150389,133.576593 Z M45.5116548,133.576593 L36.5099628,133.576593 L36.5099628,130.875784 L45.5116548,130.875784 L45.5116548,133.576593 Z M27.5082707,133.576593 L18.5065787,133.576593 L18.5065787,130.875784 L27.5082707,130.875784 L27.5082707,133.576593 Z" id="Shape" fill="#DAE7FF"></path>
                <g transform="translate(1.800338, 0.000000)" id="Path">
                    <path d="M125.846355,9.49244205 L125.846355,101.914113 C125.846355,106.892604 121.813597,110.916809 116.844663,110.916809 L9.37346193,110.916809 C4.40452792,110.916809 0.371769882,106.892604 0.371769882,101.914113 L0.371769882,9.49244205 C0.371769882,4.51395148 4.40452792,0.489746631 9.37346193,0.489746631 L116.844663,0.489746631 C121.813597,0.489746631 125.846355,4.51395148 125.846355,9.49244205 Z" fill="#DAE7FF"></path>
                    <path d="M125.044305,105.619623 C123.631039,108.743558 120.49845,110.92221 116.843763,110.92221 L9.37256176,110.92221 C4.40362775,110.92221 0.370869712,106.889003 0.370869712,101.919515 L0.370869712,9.48884097 C0.370869712,5.83374663 2.54927919,2.70080863 5.67286633,1.28738544 C5.16877157,2.42172507 4.87171574,3.66409704 4.87171574,4.98749326 L4.87171574,100.118976 C4.87171574,103.594016 7.69824704,106.420863 11.1729002,106.420863 L54.1379763,106.420863 C54.5880609,107.762264 54.9571303,109.28372 55.317198,110.913208 L89.7936785,110.913208 C88.0203452,109.625822 85.1668088,108.347439 82.295269,106.420863 L121.344609,106.420863 C122.667858,106.420863 123.919093,106.123774 125.044305,105.619623 Z" fill="#C3D3F3"></path>
                </g>
                <g transform="translate(150.328257, 0.000000)">
                    <path d="M125.546599,13.9937898 L125.546599,106.415461 C125.546599,111.393951 121.513841,115.418156 116.544907,115.418156 L9.07370558,115.418156 C4.10477157,115.418156 0.0720135364,111.393951 0.0720135364,106.415461 L0.0720135364,13.9937898 C0.0720135364,9.01529919 4.10477157,4.99109434 9.07370558,4.99109434 L116.544907,4.99109434 C121.513841,4.99109434 125.546599,9.01529919 125.546599,13.9937898 Z" id="Path" fill="#DAE7FF"></path>
                    <path d="M125.546599,75.7810889 L0.0738138748,75.7810889 L0.0738138748,9.49244205 C0.0738138748,4.52025337 4.1038714,0.489746631 9.07550592,0.489746631 L116.544907,0.489746631 C121.516541,0.489746631 125.546599,4.52025337 125.546599,9.49244205 L125.546599,75.7810889 Z" id="Path" fill="#FFFFFF"></path>
                    <path d="M18.3724535,60.7231806 C17.6523181,60.7231806 17.0654078,60.1596119 17.0654078,59.4682049 C17.0654078,58.7767978 17.6523181,58.2132291 18.3724535,58.2132291 C22.1252589,58.2132291 24.4936041,54.3510728 27.2301184,49.8803342 C31.1206497,43.5280323 35.9554585,35.6263666 47.1265584,35.6263666 C54.4071269,35.6263666 58.5830118,38.1804313 62.6265719,40.6507709 C66.8438646,43.2291429 70.830714,45.6652722 78.4947547,45.6652722 C99.2643587,45.6652722 101.428365,34.3956981 103.164792,25.3425876 C104.129773,20.303779 105.043445,15.5485553 109.862951,15.5485553 C110.583086,15.5485553 111.169997,16.112124 111.169997,16.803531 C111.169997,17.494938 110.583086,18.0585067 109.862951,18.0585067 C107.458599,18.0585067 106.789773,20.2983774 105.737475,25.798124 C104.027154,34.7098922 101.438267,48.1743235 78.4947547,48.1743235 C70.0709712,48.1743235 65.5728257,45.424 61.2232081,42.7673046 C57.322775,40.3851914 53.6419831,38.1354178 47.1265584,38.1354178 C37.4515398,38.1354178 33.2189442,45.0521887 29.4823418,51.1497143 C26.4694755,56.0714879 23.6204399,60.7231806 18.3724535,60.7231806 Z" id="Path" fill="#DCEEFD"></path>
                    <path d="M18.3724535,60.7231806 C17.6523181,60.7231806 17.0654078,60.1596119 17.0654078,59.4682049 C17.0654078,58.7767978 17.6523181,58.2132291 18.3724535,58.2132291 C22.0532453,58.2132291 24.4278917,53.47331 27.179709,47.9780647 C31.0594382,40.2384474 35.8843452,30.6064636 47.1265584,30.6064636 C54.5502538,30.6064636 58.7567445,34.4641186 62.8255093,38.1948356 C67.0166971,42.0380863 70.9738409,45.6652722 78.4938545,45.6652722 C89.1644602,45.6652722 94.0604805,36.1512237 98.3749915,27.7544097 C101.744325,21.2058491 104.650071,15.5494555 109.862051,15.5494555 C110.582186,15.5494555 111.169096,16.1130243 111.169096,16.8044313 C111.169096,17.4958383 110.582186,18.059407 109.862051,18.059407 C106.277577,18.059407 103.699492,23.069407 100.718132,28.8680431 C96.2965008,37.4710189 90.7928663,48.176124 78.4938545,48.176124 C69.9269442,48.176124 65.1938545,43.8377251 61.0179695,40.009779 C57.1535431,36.4654178 53.497956,33.1182156 47.1256582,33.1182156 C37.527154,33.1182156 33.2792555,41.5933531 29.5318511,49.0682911 C26.530687,55.0613854 23.6969543,60.7231806 18.3724535,60.7231806 Z" id="Path" fill="#7266D5"></path>
                    <ellipse id="Oval" fill="#2CCD7F" cx="18.3724535" cy="59.4682049" rx="2.61409137" ry="2.50995148"></ellipse>
                    <ellipse id="Oval" fill="#2CCD7F" cx="78.4947547" cy="46.9193477" rx="2.61409137" ry="2.50995148"></ellipse>
                    <ellipse id="Oval" fill="#D0F4E3" cx="109.862951" cy="16.803531" rx="5.22818274" ry="5.0190027"></ellipse>
                    <ellipse id="Oval" fill="#99E9C2" cx="109.862951" cy="16.803531" rx="3.92113706" ry="3.76492722"></ellipse>
                    <ellipse id="Oval" fill="#2CCD7F" cx="109.862951" cy="16.803531" rx="2.61409137" ry="2.50995148"></ellipse>
                    <path d="M116.544907,110.916809 L9.07550592,110.916809 C4.1038714,110.916809 0.0738138748,106.886302 0.0738138748,101.914113 L0.0738138748,75.7810889 L125.546599,75.7810889 L125.546599,101.914113 C125.546599,106.886302 121.516541,110.916809 116.544907,110.916809 Z" id="Path" fill="#7266D5"></path>
                    <path d="M25.764643,90.8389973 L10.9811641,90.8389973 C10.7336176,90.8389973 10.5310795,90.6364367 10.5310795,90.3888625 L10.5310795,86.2701294 C10.5310795,86.0225553 10.7336176,85.8199946 10.9811641,85.8199946 L25.764643,85.8199946 C26.0121895,85.8199946 26.2147276,86.0225553 26.2147276,86.2701294 L26.2147276,90.3888625 C26.2147276,90.6364367 26.0121895,90.8389973 25.764643,90.8389973 Z" id="Path" fill="#FFFFFF"></path>
                    <path d="M41.448291,100.877903 L10.980264,100.877903 C10.7327174,100.877903 10.5301794,100.675342 10.5301794,100.427768 L10.5301794,96.309035 C10.5301794,96.0614609 10.7327174,95.8589003 10.980264,95.8589003 L41.448291,95.8589003 C41.6958376,95.8589003 41.8983756,96.0614609 41.8983756,96.309035 L41.8983756,100.427768 C41.8983756,100.675342 41.6958376,100.877903 41.448291,100.877903 Z" id="Path" fill="#FFFFFF"></path>
                </g>
            </g>
        </g>
        <g id="Group" transform="translate(35.000000, 121.326146)" fill-rule="nonzero">
            <path d="M75.2505448,88.5703181 C75.2505448,88.5703181 76.3136447,87.6493423 76.6602098,86.7166631 C77.006775,85.7839838 77.794423,81.4923989 80.0700508,78.9626415 C82.3465787,76.4337844 90.0754315,78.6340431 89.9197022,79.3731644 C89.5731371,81.025159 84.7410288,78.8366038 82.9127851,82.4592884 C82.4257936,83.4243774 83.1459289,84.6172345 83.6383215,84.488496 C84.9462673,84.1463935 86.0057665,81.2943396 86.9797496,81.6139353 C87.7178883,81.8561078 87.1993909,86.736469 84.8157428,88.2705283 C83.1342267,89.3526523 79.2166904,91.5178005 77.8007242,93.7297628 C76.3856582,95.9435256 74.0767242,89.9468302 75.2505448,88.5703181 Z" id="Path" fill="#F1B282"></path>
            <path d="M73.9759052,87.230717 C74.3305719,86.9624367 74.8355668,87.0308571 75.1056176,87.3846631 L80.0457462,93.8485984 C80.348203,94.2438167 80.2779898,94.8073854 79.8891168,95.1179784 C75.9553773,98.2545175 56.6008393,113.490679 52.4006497,113.009935 L49.2860643,101.296528 C49.2851641,101.295628 67.7026261,91.9760377 73.9759052,87.230717 Z" id="Path" fill="#F0B701"></path>
            <path d="M190.015817,23.0937143 C195.691384,23.5627547 199.256054,29.4838275 201.188717,31.2834663 C203.121381,33.0831051 204.17908,38.5207332 208.954477,42.8546307 C213.668663,47.1345121 200.227337,45.4276011 200.227337,45.4276011 L195.529354,39.5191321 C195.529354,39.5191321 194.664291,37.7807116 190.769259,40.1313154 C188.109259,41.736496 185.692305,38.8403288 183.915371,35.4571159 C183.544501,35.6083612 183.138525,35.6830836 182.731648,35.5948571 C181.73246,35.3769919 181.827878,32.6527763 181.973706,31.0457951 C181.283276,29.2020431 180.894403,27.8300323 180.894403,27.8300323 C180.781882,24.4018059 184.34025,22.6246739 190.015817,23.0937143 Z" id="Path" fill="#F1B282"></path>
            <path d="M206.804873,63.2970512 C206.804873,63.2970512 200.93577,67.6408518 194.876731,72.3420593 C187.620467,77.9714447 181.468711,80.9126253 177.757313,84.9719407 C176.881448,85.9298275 178.335222,90.5049973 176.583492,92.0417574 C174.831763,93.5785175 167.979675,94.5769164 167.822146,90.3645553 C167.714125,87.4800916 167.159621,83.9438329 170.644176,81.9659407 C171.928717,81.2367224 179.013049,75.0671752 182.804562,72.0296658 C186.596074,68.9921563 196.855303,58.1565121 196.855303,58.1565121 C196.855303,58.1565121 204.570653,57.7531914 206.804873,63.2970512 Z" id="Path" fill="#E0A277"></path>
            <path d="M202.486761,35.1510243 C200.760237,34.8710404 201.319242,30.6847871 198.094836,30.7478059 C195.583364,30.7973208 196.476332,32.4943288 193.696609,31.9082534 C190.916887,31.3221779 191.821557,25.7612129 182.376081,27.3789973 C178.192995,28.0956119 177.708704,23.4709272 179.234491,20.2074501 C182.516508,13.1889488 196.019046,9.46003235 200.756636,16.7522156 C205.83179,24.5629542 204.213286,35.4310081 202.486761,35.1510243 Z" id="Path" fill="#102B5E"></path>
            <path d="M236.224203,73.1108895 L208.06691,73.1108895 C207.247756,70.6531536 206.176555,68.8076011 204.50224,68.042372 C203.64708,67.6552561 202.773915,67.331159 201.918755,67.0160647 C200.82955,66.6289488 199.758349,66.268841 198.768162,65.8187062 C198.480108,65.6926685 198.201056,65.557628 197.931005,65.4135849 C197.453915,65.1525067 197.003831,64.8644205 196.589753,64.5403235 C195.50955,63.6940701 194.645387,62.1996226 194.087283,60.3360647 C193.988264,60.0209704 193.898247,59.6878706 193.826234,59.3547709 C193.799228,59.2377358 193.772223,59.1297035 193.763222,59.0126685 C193.196115,56.3388679 193.205117,53.1429111 194.006267,50.0729919 C194.699398,47.3631806 195.995641,44.7614016 198.057029,42.6907817 C199.479296,41.2503504 201.270633,40.0709973 203.476047,39.3057682 C204.160176,39.0626954 204.862308,38.9096496 205.582443,38.8466307 C206.644643,38.7295957 207.742849,38.8016173 208.850058,39.0356873 C211.964643,39.6748787 215.214254,41.6014555 218.166809,44.5903504 C222.10955,48.5695418 225.539195,54.4212938 227.492562,61.6054447 C229.040853,67.2951482 232.64153,70.7071698 236.224203,73.1108895 Z" id="Path" fill="#2CCD7F"></path>
            <path d="M199.853766,13.0890189 C199.853766,13.0890189 199.686335,6.82584367 208.630416,6.82584367 C226.801232,6.82584367 219.568372,23.7635148 219.832122,32.5852561 C220.096772,41.4069973 224.330267,40.7894124 224.506701,43.8764367 C224.683134,46.9643612 207.306267,44.4940216 206.072135,32.4970296 C204.837103,20.5000377 203.955838,14.973283 201.397557,16.0004906 C198.839276,17.0276981 199.853766,13.0890189 199.853766,13.0890189 Z" id="Path" fill="#102B5E"></path>
            <path d="M196.024447,10.8059353 C193.479668,12.0167978 199.365875,22.6039677 202.934146,21.2211536 C206.501516,19.8383396 199.34247,9.22686253 196.024447,10.8059353 Z" id="Path" fill="#2CCD7F"></path>
            <path d="M177.180305,109.872496 L70.9171303,125.931504 C66.0013063,126.674226 61.414044,123.291013 60.6714044,118.374642 L46.8628088,26.9846792 C46.1201692,22.0683073 49.5030051,17.4805337 54.4188291,16.7378113 L160.682003,0.678803235 C165.597827,-0.0639191375 170.18509,3.3192938 170.927729,8.23566577 L184.736325,99.625628 C185.478964,104.542 182.096129,109.129774 177.180305,109.872496 Z" id="Path" fill="#1B90FB"></path>
            <polygon id="Rectangle" fill="#9FD1FD" transform="translate(106.675277, 43.800640) rotate(-8.591959) translate(-106.675277, -43.800640) " points="102.279736 37.899325 111.071012 37.8991802 111.070818 49.7019548 102.279542 49.7020996"></polygon>
            <polygon id="Rectangle" fill="#1277D7" transform="translate(110.642158, 70.059098) rotate(-8.591959) translate(-110.642158, -70.059098) " points="106.24686 49.404315 115.038136 49.4041702 115.037455 90.7138814 106.24618 90.7140261"></polygon>
            <polygon id="Rectangle" fill="#9FD1FD" transform="translate(94.518090, 51.606106) rotate(-8.591959) translate(-94.518090, -51.606106) " points="90.1226469 39.8034033 98.9139225 39.8032586 98.9135339 63.4088078 90.1222582 63.4089526"></polygon>
            <polygon id="Rectangle" fill="#1277D7" transform="translate(98.484971, 77.864564) rotate(-8.591959) translate(-98.484971, -77.864564) " points="94.0895761 63.111168 102.880852 63.1110232 102.880366 92.6179597 94.0890903 92.6181045"></polygon>
            <polygon id="Rectangle" fill="#9FD1FD" transform="translate(82.361794, 59.411347) rotate(-8.591959) translate(-82.361794, -59.411347) " points="77.9664475 41.7072572 86.7577232 41.7071124 86.7571402 77.1154362 77.9658646 77.115581"></polygon>
            <polygon id="Rectangle" fill="#1277D7" transform="translate(86.328585, 85.669805) rotate(-8.591959) translate(-86.328585, -85.669805) " points="81.9330925 76.8177964 90.7243681 76.8176517 90.7240766 94.5218136 81.932801 94.5219583"></polygon>
            <polygon id="Rectangle" fill="#FFFFFF" transform="translate(147.917366, 58.457576) rotate(-8.591959) translate(-147.917366, -58.457576) " points="143.522165 31.9014055 152.313441 31.9012607 152.312566 85.0137464 143.521291 85.0138912"></polygon>
            <polygon id="Rectangle" fill="#9FD1FD" transform="translate(147.917366, 58.457576) rotate(-8.591959) translate(-147.917366, -58.457576) " points="143.522165 31.9014055 152.313441 31.9012607 152.312566 85.0137464 143.521291 85.0138912"></polygon>
            <polygon id="Rectangle" fill="#9FD1FD" transform="translate(131.268542, 36.527521) rotate(-8.591959) translate(-131.268542, -36.527521) " points="126.872943 34.1427311 135.664219 34.1425864 135.66414 38.9123118 126.872865 38.9124565"></polygon>
            <polygon id="Rectangle" fill="#1277D7" transform="translate(135.235557, 62.786870) rotate(-8.591959) translate(-135.235557, -62.786870) " points="130.840317 38.6155621 139.631593 38.6154174 139.630797 86.9581777 130.839521 86.9583225"></polygon>
            <polygon id="Rectangle" fill="#9FD1FD" transform="translate(118.589394, 40.872975) rotate(-8.591959) translate(-118.589394, -40.872975) " points="114.193835 36.0862169 122.98511 36.0860722 122.984953 45.6597339 114.193677 45.6598787"></polygon>
            <polygon id="Rectangle" fill="#1277D7" transform="translate(122.556252, 67.131879) rotate(-8.591959) translate(-122.556252, -67.131879) " points="118.160972 45.362089 126.952248 45.3619443 126.951531 88.9016686 118.160255 88.9018133"></polygon>
            <path d="M62.1071743,232.790798 L63.196379,237.866518 C63.196379,237.866518 64.7167648,240.358464 60.2897327,240.736577 C55.8627005,241.11469 55.4666261,239.106189 55.4666261,239.106189 C55.4666261,239.106189 54.1712826,233.005062 54.2252927,232.572933 C54.2793029,232.140803 62.1071743,232.790798 62.1071743,232.790798 Z" id="Path" fill="#F1B282"></path>
            <path d="M63.1261658,236.453094 C63.5735499,235.962447 64.302687,235.858016 64.8715939,236.201019 C66.861868,237.401078 71.0944636,239.94614 71.3501117,240.041569 C73.602335,240.883321 79.6163655,242.204916 79.6136659,244.469995 C79.6100643,246.844005 62.1791878,246.196712 55.7996887,245.880717 C54.5061455,245.816798 53.4835533,244.758081 53.4673503,243.462593 L53.4015699,238.214022 C53.3980372,237.946642 53.5375635,237.698167 53.7671066,237.561326 C53.9966497,237.424485 54.2820034,237.420884 54.5151472,237.551423 C55.5827479,238.149202 57.2417597,238.925235 58.7621455,238.994555 C60.4526633,239.069278 62.1818883,237.487504 63.1261658,236.453094 Z" id="Path" fill="#102B5E"></path>
            <path d="M15.5936311,210.902544 L11.804819,214.450507 C11.804819,214.450507 10.0566904,216.742593 7.45250085,213.142415 C4.84831134,209.542237 6.82058206,208.469116 6.82058206,208.469116 C6.82058206,208.469116 11.3817394,204.215342 11.7805144,204.03979 C12.1783892,203.862437 15.5936311,210.902544 15.5936311,210.902544 Z" id="Path" fill="#F1B282"></path>
            <path d="M12.5852657,214.0931 C13.236088,214.224539 13.7014755,214.79531 13.7005753,215.458809 C13.6978748,217.783305 13.6969746,222.722183 13.7464839,222.990464 C14.1857665,225.354571 16.1508359,231.191019 14.2082707,232.355067 C12.172088,233.574933 3.7474044,218.299159 0.732737733,212.667973 C0.121522843,211.526431 0.502294416,210.104005 1.60410152,209.423402 L6.06894078,206.663175 C6.29578342,206.522733 6.58113706,206.51373 6.81698139,206.640668 C7.05282572,206.766706 7.20315398,207.009779 7.2112555,207.276259 C7.24816244,208.498825 7.43809814,210.32097 8.16273435,211.660571 C8.96568528,213.148717 11.2125076,213.815817 12.5852657,214.0931 Z" id="Path" fill="#102B5E"></path>
            <path d="M53.8850288,151.634199 C53.8850288,151.634199 62.6310728,169.289385 64.2504772,178.198453 C65.8320745,186.900458 34.7546328,206.61186 16.5658139,212.818318 C15.8249746,213.071294 15.007621,212.761601 14.6223486,212.080097 L10.6805076,204.84283 C10.2214213,204.030787 10.469868,203.001779 11.2494146,202.488625 L44.3297327,175.120431 L36.3938409,151.633299 L53.8850288,151.633299 L53.8850288,151.634199 Z" id="Path" fill="#0B224E"></path>
            <path d="M27.4857665,147.099542 C27.1617056,157.952291 37.8134078,181.600571 38.8846091,192.129224 C39.8090829,201.214744 51.6301049,229.059181 53.300819,234.693067 C53.5357631,235.484404 54.3342132,235.968749 55.1443655,235.807601 L62.2998105,234.245633 C62.8156074,234.143003 63.2647919,233.829709 63.5384433,233.381375 C63.8120948,232.93304 63.8850085,232.390178 63.7400812,231.884226 C62.1125753,226.192722 56.9221997,202.23745 55.9905245,197.312075 C54.8572115,191.318981 56.4766159,165.554167 53.0748765,153.253784 C49.6740372,140.954302 27.4857665,147.099542 27.4857665,147.099542 Z" id="Path" fill="#224380"></path>
            <path d="M72.6904636,125.38234 C72.6904636,125.38234 77.214714,121.240199 79.7549915,120.052744 C82.295269,118.865288 85.1272014,117.741752 85.4089543,118.391747 C85.6907073,119.041741 80.7613807,122.883191 80.7613807,122.883191 C80.7613807,122.883191 82.9694958,123.976119 85.3369408,122.609509 C87.7043858,121.243801 89.3570964,120.568598 89.7594721,120.985423 C90.1618477,121.402248 84.8814552,127.952609 81.8073773,128.469364 C78.7332995,128.986119 72.9740169,130.864981 72.9740169,130.864981 L72.6904636,125.38234 Z" id="Path" fill="#F1B282"></path>
            <path d="M58.4533875,79.3992722 C59.4282707,81.9029218 58.3957766,83.0039515 58.5416041,84.0149542 C58.6874315,85.0259569 59.6497124,87.1785013 59.4930829,88.095876 C59.3373536,89.0132507 57.9159865,88.9043181 57.333577,90.0404582 C56.7502673,91.1765984 57.1715465,92.8556011 55.8320948,93.9233208 C54.492643,94.9910404 50.5111946,94.0241509 50.4634856,95.2638221 C50.4166768,96.5043935 51.9082572,101.387456 51.9082572,101.387456 L40.4464027,99.6544367 C40.4464027,99.6544367 42.6545178,93.2823288 42.4456785,90.4590836 C42.2368393,87.6367385 42.7022267,77.4753962 46.4442301,76.8623127 C50.1862335,76.2501294 57.4181929,76.7416765 58.4533875,79.3992722 Z" id="Path" fill="#F1B282"></path>
            <path d="M48.9376988,71.4904043 C54.5016447,72.0593747 57.1670457,71.8739191 57.3704839,69.8789218 C59.126714,70.0607763 61.9118376,73.306248 61.5445685,76.8992237 C60.7326159,84.8396011 50.5445008,80.3634609 50.0935161,84.7720809 C50.0872149,84.7855849 50.4895905,90.4968949 51.779533,91.4511806 C53.0703756,92.4063666 56.1039459,89.8883127 57.2795668,89.9567332 C58.2319459,90.0125499 61.2349103,99.5076927 54.2288934,98.7910782 C47.2228765,98.0744636 49.7712555,84.5605175 45.4846497,84.1220863 C43.3071404,83.8988194 44.5448731,93.0734663 41.5527107,92.7673747 C38.8053942,92.4864906 36.0463756,88.5118005 36.7818139,81.3186469 C37.5838646,73.489903 44.0020711,70.9853531 48.9376988,71.4904043 Z" id="Path" fill="#0B224E"></path>
            <path d="M36.2318105,153.578782 C29.4292318,152.606491 25.9833841,154.050523 24.3639797,146.76104 C22.7445753,139.471558 28.2959188,130.739844 29.4292318,123.289213 C31.5347276,104.499687 39.1465584,95.914717 41.7381455,95.4285714 C43.4259628,95.1116765 47.518132,97.5766146 50.1664298,99.3339407 C51.8245415,100.43407 53.1162843,102.032049 53.8049137,103.899208 C58.4911946,116.602011 53.7238985,127.046938 53.7238985,133.986216 C53.7238985,136.242291 56.0796413,149.66531 56.6269442,151.6351 C57.5640203,155.024615 42.9461726,154.537569 36.2318105,153.578782 Z" id="Path" fill="#FFCB01"></path>
            <path d="M55.1623689,143.998113 C49.4102876,142.557682 38.4462267,139.262695 36.0337733,134.572291 C32.7211506,128.144367 41.2097462,113.136873 41.2097462,113.136873 C38.644264,125.038437 39.8504907,138.137358 49.3382741,138.749542 C50.7785448,138.839569 52.4078511,138.803558 54.1541794,138.659515 C54.2441963,138.992615 54.3342132,139.325714 54.4332318,139.658814 L55.1623689,143.998113 Z" id="Path" fill="#F0B701"></path>
            <path d="M76.900555,133.570291 C76.4414687,133.952906 52.8993435,142.127353 44.863533,137.535978 C36.8277225,132.944604 40.7551607,113.135073 40.7551607,113.135073 L51.9001557,115.112965 L51.598599,125.968415 C51.598599,125.968415 65.255066,125.447159 70.3626261,124.111159 C71.1484738,123.904997 71.9784298,124.238097 72.4015093,124.932205 C73.9759052,127.506976 77.3659425,133.183175 76.900555,133.570291 Z" id="Path" fill="#FFCB01"></path>
            <path d="M243.722613,77.6032345 L209.246132,77.6032345 C208.886064,75.9737466 208.516995,74.4522911 208.06691,73.1108895 L236.224203,73.1108895 C239.095743,75.0374663 241.949279,76.3158491 243.722613,77.6032345 Z" id="Path" fill="#1EAF69"></path>
            <path d="M193.822633,59.3547709 C194.358234,61.6747655 195.330416,63.553628 196.589753,64.5430243 C198.723154,66.2166253 201.697313,66.76669 204.49954,68.0477736 C208.311756,64.3926792 207.527709,53.8802318 207.527709,53.8802318 C202.47686,51.4792129 197.391804,55.3548733 193.822633,59.3547709 Z" id="Path" fill="#1EAF69"></path>
            <path d="M202.134795,62.4796065 C202.134795,62.4796065 195.755296,66.0311698 189.139953,69.9113315 C181.218464,74.5585229 174.739046,76.6813585 170.536156,80.2293208 C169.544169,81.0665714 168.660203,87.0380593 166.724839,88.336248 C164.789475,89.6344367 157.128135,88.1084798 159.618003,84.7063612 C164.613942,77.8832183 158.721435,82.7536765 158.486491,82.1567978 C157.68264,80.1113854 161.218504,77.4114771 163.868602,76.3311536 C165.235959,75.7738868 173.056629,70.5685283 177.20731,68.0450728 C181.35889,65.520717 192.928765,56.098496 192.928765,56.098496 C192.928765,56.098496 200.634213,56.6935741 202.134795,62.4796065 Z" id="Path" fill="#F1B282"></path>
            <path d="M200.378565,43.8089164 C195.260203,44.017779 192.283343,55.2990566 189.885293,57.2112291 C187.487242,59.1225013 196.796792,66.8927278 198.035425,66.2508356 C200.93847,64.7473854 206.817475,59.1945229 207.988596,54.5662372 C209.159716,49.9379515 204.099865,43.6567709 200.378565,43.8089164 Z" id="Path" fill="#2CCD7F"></path>
        </g>
        <g id="plant_3_" transform="translate(151.121827, 277.072776)" fill-rule="nonzero">
            <path d="M54.9544298,59.9192399 L0.686829103,59.9192399 C0.686829103,59.9192399 0.202538071,90.4581833 27.8206294,90.4581833 C55.4387208,90.4581833 54.9544298,59.9192399 54.9544298,59.9192399 Z" id="Path" fill="#C3D3F3"></path>
            <ellipse id="Oval" fill="#DAE7FF" cx="27.8206294" cy="59.9192399" rx="27.1338003" ry="8.72271159"></ellipse>
            <path d="M27.8206294,63.0638814 C27.8206294,63.0638814 7.19505245,29.2254501 14.8572927,0.513153639 C14.8572927,0.513153639 29.2536988,26.8532399 27.8206294,63.0638814 Z" id="Path" fill="#2CCD7F"></path>
            <path d="M27.8206294,63.0638814 C27.8206294,63.0638814 29.6407716,23.4754286 52.0477834,3.95758491 C52.0468832,3.95668464 49.2554585,33.8456334 27.8206294,63.0638814 Z" id="Path" fill="#2CCD7F"></path>
            <path d="M27.8206294,66.790097 C27.8206294,66.790097 18.6596074,28.2333531 34.8185448,3.29408625 C34.8185448,3.29498652 40.3716887,32.7950189 27.8206294,66.790097 Z" id="Path" fill="#1EAF69"></path>
        </g>
    </g>
</svg>